<mxfile host="app.diagrams.net" modified="2023-03-27T01:19:44.105Z" agent="Mozilla/5.0 (Windows NT 10.0; Win64; x64) AppleWebKit/537.36 (KHTML, like Gecko) Chrome/111.0.0.0 Safari/537.36" etag="9Yy5pXUmyx4yFUbBfUtf" version="21.1.1" type="google">
  <diagram id="kgpKYQtTHZ0yAKxKKP6v" name="Page-1">
    <mxGraphModel dx="1030" dy="415" grid="1" gridSize="10" guides="1" tooltips="1" connect="1" arrows="1" fold="1" page="1" pageScale="1" pageWidth="850" pageHeight="1100" math="0" shadow="0">
      <root>
        <mxCell id="0" />
        <mxCell id="1" parent="0" />
        <mxCell id="1rYxMRe_m1wBD9LGmmaj-11" style="edgeStyle=orthogonalEdgeStyle;rounded=0;orthogonalLoop=1;jettySize=auto;html=1;dashed=1;endArrow=none;endFill=0;" parent="1" source="1rYxMRe_m1wBD9LGmmaj-10" edge="1">
          <mxGeometry relative="1" as="geometry">
            <mxPoint x="95" y="1070" as="targetPoint" />
          </mxGeometry>
        </mxCell>
        <mxCell id="1rYxMRe_m1wBD9LGmmaj-10" value="User" style="shape=umlActor;verticalLabelPosition=bottom;verticalAlign=top;html=1;" parent="1" vertex="1">
          <mxGeometry x="80" y="410" width="30" height="60" as="geometry" />
        </mxCell>
        <mxCell id="1rYxMRe_m1wBD9LGmmaj-12" value="View" style="shape=umlLifeline;perimeter=lifelinePerimeter;container=1;collapsible=0;recursiveResize=0;rounded=0;shadow=0;strokeWidth=1;" parent="1" vertex="1">
          <mxGeometry x="160" y="410" width="100" height="660" as="geometry" />
        </mxCell>
        <mxCell id="1rYxMRe_m1wBD9LGmmaj-13" value=":Controller" style="shape=umlLifeline;perimeter=lifelinePerimeter;container=1;collapsible=0;recursiveResize=0;rounded=0;shadow=0;strokeWidth=1;" parent="1" vertex="1">
          <mxGeometry x="330" y="410" width="100" height="660" as="geometry" />
        </mxCell>
        <mxCell id="1rYxMRe_m1wBD9LGmmaj-14" value=":Service" style="shape=umlLifeline;perimeter=lifelinePerimeter;container=1;collapsible=0;recursiveResize=0;rounded=0;shadow=0;strokeWidth=1;" parent="1" vertex="1">
          <mxGeometry x="500" y="410" width="100" height="660" as="geometry" />
        </mxCell>
        <mxCell id="1rYxMRe_m1wBD9LGmmaj-15" value=":Repository" style="shape=umlLifeline;perimeter=lifelinePerimeter;container=1;collapsible=0;recursiveResize=0;rounded=0;shadow=0;strokeWidth=1;" parent="1" vertex="1">
          <mxGeometry x="670" y="410" width="100" height="660" as="geometry" />
        </mxCell>
        <mxCell id="1rYxMRe_m1wBD9LGmmaj-16" value="Database" style="shape=umlLifeline;perimeter=lifelinePerimeter;container=1;collapsible=0;recursiveResize=0;rounded=0;shadow=0;strokeWidth=1;" parent="1" vertex="1">
          <mxGeometry x="840" y="410" width="100" height="650" as="geometry" />
        </mxCell>
        <mxCell id="v-QebPua1ZWwUlzsEAZD-1" value="request" style="html=1;verticalAlign=bottom;endArrow=block;" parent="1" edge="1">
          <mxGeometry width="80" relative="1" as="geometry">
            <mxPoint x="180" y="150" as="sourcePoint" />
            <mxPoint x="260" y="150" as="targetPoint" />
          </mxGeometry>
        </mxCell>
        <mxCell id="v-QebPua1ZWwUlzsEAZD-2" value="response" style="html=1;verticalAlign=bottom;endArrow=open;dashed=1;endSize=8;" parent="1" edge="1">
          <mxGeometry relative="1" as="geometry">
            <mxPoint x="390" y="150" as="sourcePoint" />
            <mxPoint x="310" y="150" as="targetPoint" />
          </mxGeometry>
        </mxCell>
        <mxCell id="v-QebPua1ZWwUlzsEAZD-3" value="" style="html=1;points=[];perimeter=orthogonalPerimeter;" parent="1" vertex="1">
          <mxGeometry x="445" y="70" width="10" height="80" as="geometry" />
        </mxCell>
        <mxCell id="v-QebPua1ZWwUlzsEAZD-4" value="alternative" style="shape=umlFrame;whiteSpace=wrap;html=1;width=160;height=30;" parent="1" vertex="1">
          <mxGeometry x="520" y="40" width="300" height="200" as="geometry" />
        </mxCell>
        <mxCell id="jIPnrWtodA-wq_USUHRD-1" value="Lifeline" style="text;html=1;strokeColor=none;fillColor=none;align=center;verticalAlign=middle;whiteSpace=wrap;rounded=0;" parent="1" vertex="1">
          <mxGeometry x="430" y="160" width="40" height="20" as="geometry" />
        </mxCell>
      </root>
    </mxGraphModel>
  </diagram>
</mxfile>
